<svg xmlns="http://www.w3.org/2000/svg" version="1.1" xmlns:xlink="http://www.w3.org/1999/xlink" xmlns:svgjs="http://svgjs.dev/svgjs" viewBox="0 0 1422 800" opacity="0.17"><g stroke-width="3.5" stroke="hsl(265, 55%, 20%)" fill="none" stroke-linecap="round"><line x1="0" y1="0" x2="38" y2="38"></line><line x1="38" y1="0" x2="76" y2="38"></line><line x1="76" y1="0" x2="114" y2="38"></line><line x1="114" y1="0" x2="152" y2="38"></line><line x1="152" y1="0" x2="190" y2="38"></line><line x1="190" y1="0" x2="228" y2="38"></line><line x1="228" y1="0" x2="266" y2="38"></line><line x1="266" y1="0" x2="304" y2="38"></line><line x1="304" y1="0" x2="342" y2="38"></line><line x1="342" y1="0" x2="380" y2="38"></line><line x1="418" y1="0" x2="380" y2="38"></line><line x1="418" y1="0" x2="456" y2="38"></line><line x1="456" y1="0" x2="494" y2="38"></line><line x1="494" y1="0" x2="532" y2="38"></line><line x1="532" y1="0" x2="570" y2="38"></line><line x1="608" y1="0" x2="570" y2="38"></line><line x1="608" y1="0" x2="646" y2="38"></line><line x1="646" y1="0" x2="684" y2="38"></line><line x1="684" y1="0" x2="722" y2="38"></line><line x1="722" y1="0" x2="760" y2="38"></line><line x1="760" y1="0" x2="798" y2="38"></line><line x1="798" y1="0" x2="836" y2="38"></line><line x1="836" y1="0" x2="874" y2="38"></line><line x1="912" y1="0" x2="874" y2="38"></line><line x1="912" y1="0" x2="950" y2="38"></line><line x1="950" y1="0" x2="988" y2="38"></line><line x1="988" y1="0" x2="1026" y2="38"></line><line x1="1026" y1="0" x2="1064" y2="38"></line><line x1="1064" y1="0" x2="1102" y2="38"></line><line x1="1102" y1="0" x2="1140" y2="38"></line><line x1="1140" y1="0" x2="1178" y2="38"></line><line x1="1178" y1="0" x2="1216" y2="38"></line><line x1="1216" y1="0" x2="1254" y2="38"></line><line x1="1254" y1="0" x2="1292" y2="38"></line><line x1="1292" y1="0" x2="1330" y2="38"></line><line x1="1330" y1="0" x2="1368" y2="38"></line><line x1="1368" y1="0" x2="1406" y2="38"></line><line x1="1406" y1="0" x2="1444" y2="38"></line><line x1="0" y1="38" x2="38" y2="76"></line><line x1="38" y1="38" x2="76" y2="76"></line><line x1="76" y1="38" x2="114" y2="76"></line><line x1="114" y1="38" x2="152" y2="76"></line><line x1="152" y1="38" x2="190" y2="76"></line><line x1="190" y1="38" x2="228" y2="76"></line><line x1="228" y1="38" x2="266" y2="76"></line><line x1="266" y1="38" x2="304" y2="76"></line><line x1="304" y1="38" x2="342" y2="76"></line><line x1="342" y1="38" x2="380" y2="76"></line><line x1="380" y1="38" x2="418" y2="76"></line><line x1="456" y1="38" x2="418" y2="76"></line><line x1="456" y1="38" x2="494" y2="76"></line><line x1="532" y1="38" x2="494" y2="76"></line><line x1="532" y1="38" x2="570" y2="76"></line><line x1="608" y1="38" x2="570" y2="76"></line><line x1="608" y1="38" x2="646" y2="76"></line><line x1="646" y1="38" x2="684" y2="76"></line><line x1="684" y1="38" x2="722" y2="76"></line><line x1="722" y1="38" x2="760" y2="76"></line><line x1="760" y1="38" x2="798" y2="76"></line><line x1="798" y1="38" x2="836" y2="76"></line><line x1="836" y1="38" x2="874" y2="76"></line><line x1="912" y1="38" x2="874" y2="76"></line><line x1="912" y1="38" x2="950" y2="76"></line><line x1="950" y1="38" x2="988" y2="76"></line><line x1="1026" y1="38" x2="988" y2="76"></line><line x1="1026" y1="38" x2="1064" y2="76"></line><line x1="1064" y1="38" x2="1102" y2="76"></line><line x1="1140" y1="38" x2="1102" y2="76"></line><line x1="1140" y1="38" x2="1178" y2="76"></line><line x1="1178" y1="38" x2="1216" y2="76"></line><line x1="1216" y1="38" x2="1254" y2="76"></line><line x1="1254" y1="38" x2="1292" y2="76"></line><line x1="1292" y1="38" x2="1330" y2="76"></line><line x1="1330" y1="38" x2="1368" y2="76"></line><line x1="1368" y1="38" x2="1406" y2="76"></line><line x1="1444" y1="38" x2="1406" y2="76"></line><line x1="0" y1="76" x2="38" y2="114"></line><line x1="38" y1="76" x2="76" y2="114"></line><line x1="76" y1="76" x2="114" y2="114"></line><line x1="152" y1="76" x2="114" y2="114"></line><line x1="190" y1="76" x2="152" y2="114"></line><line x1="190" y1="76" x2="228" y2="114"></line><line x1="228" y1="76" x2="266" y2="114"></line><line x1="266" y1="76" x2="304" y2="114"></line><line x1="304" y1="76" x2="342" y2="114"></line><line x1="342" y1="76" x2="380" y2="114"></line><line x1="418" y1="76" x2="380" y2="114"></line><line x1="418" y1="76" x2="456" y2="114"></line><line x1="456" y1="76" x2="494" y2="114"></line><line x1="494" y1="76" x2="532" y2="114"></line><line x1="532" y1="76" x2="570" y2="114"></line><line x1="570" y1="76" x2="608" y2="114"></line><line x1="608" y1="76" x2="646" y2="114"></line><line x1="646" y1="76" x2="684" y2="114"></line><line x1="684" y1="76" x2="722" y2="114"></line><line x1="722" y1="76" x2="760" y2="114"></line><line x1="760" y1="76" x2="798" y2="114"></line><line x1="798" y1="76" x2="836" y2="114"></line><line x1="836" y1="76" x2="874" y2="114"></line><line x1="874" y1="76" x2="912" y2="114"></line><line x1="912" y1="76" x2="950" y2="114"></line><line x1="950" y1="76" x2="988" y2="114"></line><line x1="988" y1="76" x2="1026" y2="114"></line><line x1="1026" y1="76" x2="1064" y2="114"></line><line x1="1064" y1="76" x2="1102" y2="114"></line><line x1="1102" y1="76" x2="1140" y2="114"></line><line x1="1140" y1="76" x2="1178" y2="114"></line><line x1="1178" y1="76" x2="1216" y2="114"></line><line x1="1216" y1="76" x2="1254" y2="114"></line><line x1="1254" y1="76" x2="1292" y2="114"></line><line x1="1292" y1="76" x2="1330" y2="114"></line><line x1="1330" y1="76" x2="1368" y2="114"></line><line x1="1368" y1="76" x2="1406" y2="114"></line><line x1="1406" y1="76" x2="1444" y2="114"></line><line x1="38" y1="114" x2="0" y2="152"></line><line x1="38" y1="114" x2="76" y2="152"></line><line x1="76" y1="114" x2="114" y2="152"></line><line x1="114" y1="114" x2="152" y2="152"></line><line x1="190" y1="114" x2="152" y2="152"></line><line x1="190" y1="114" x2="228" y2="152"></line><line x1="228" y1="114" x2="266" y2="152"></line><line x1="266" y1="114" x2="304" y2="152"></line><line x1="304" y1="114" x2="342" y2="152"></line><line x1="342" y1="114" x2="380" y2="152"></line><line x1="380" y1="114" x2="418" y2="152"></line><line x1="418" y1="114" x2="456" y2="152"></line><line x1="456" y1="114" x2="494" y2="152"></line><line x1="494" y1="114" x2="532" y2="152"></line><line x1="532" y1="114" x2="570" y2="152"></line><line x1="570" y1="114" x2="608" y2="152"></line><line x1="608" y1="114" x2="646" y2="152"></line><line x1="646" y1="114" x2="684" y2="152"></line><line x1="684" y1="114" x2="722" y2="152"></line><line x1="722" y1="114" x2="760" y2="152"></line><line x1="760" y1="114" x2="798" y2="152"></line><line x1="798" y1="114" x2="836" y2="152"></line><line x1="836" y1="114" x2="874" y2="152"></line><line x1="874" y1="114" x2="912" y2="152"></line><line x1="912" y1="114" x2="950" y2="152"></line><line x1="988" y1="114" x2="950" y2="152"></line><line x1="988" y1="114" x2="1026" y2="152"></line><line x1="1026" y1="114" x2="1064" y2="152"></line><line x1="1064" y1="114" x2="1102" y2="152"></line><line x1="1102" y1="114" x2="1140" y2="152"></line><line x1="1140" y1="114" x2="1178" y2="152"></line><line x1="1178" y1="114" x2="1216" y2="152"></line><line x1="1216" y1="114" x2="1254" y2="152"></line><line x1="1254" y1="114" x2="1292" y2="152"></line><line x1="1292" y1="114" x2="1330" y2="152"></line><line x1="1330" y1="114" x2="1368" y2="152"></line><line x1="1368" y1="114" x2="1406" y2="152"></line><line x1="1406" y1="114" x2="1444" y2="152"></line><line x1="0" y1="152" x2="38" y2="190"></line><line x1="38" y1="152" x2="76" y2="190"></line><line x1="76" y1="152" x2="114" y2="190"></line><line x1="114" y1="152" x2="152" y2="190"></line><line x1="152" y1="152" x2="190" y2="190"></line><line x1="228" y1="152" x2="190" y2="190"></line><line x1="228" y1="152" x2="266" y2="190"></line><line x1="266" y1="152" x2="304" y2="190"></line><line x1="304" y1="152" x2="342" y2="190"></line><line x1="342" y1="152" x2="380" y2="190"></line><line x1="380" y1="152" x2="418" y2="190"></line><line x1="456" y1="152" x2="418" y2="190"></line><line x1="456" y1="152" x2="494" y2="190"></line><line x1="494" y1="152" x2="532" y2="190"></line><line x1="532" y1="152" x2="570" y2="190"></line><line x1="570" y1="152" x2="608" y2="190"></line><line x1="608" y1="152" x2="646" y2="190"></line><line x1="646" y1="152" x2="684" y2="190"></line><line x1="722" y1="152" x2="684" y2="190"></line><line x1="760" y1="152" x2="722" y2="190"></line><line x1="760" y1="152" x2="798" y2="190"></line><line x1="798" y1="152" x2="836" y2="190"></line><line x1="836" y1="152" x2="874" y2="190"></line><line x1="874" y1="152" x2="912" y2="190"></line><line x1="912" y1="152" x2="950" y2="190"></line><line x1="950" y1="152" x2="988" y2="190"></line><line x1="988" y1="152" x2="1026" y2="190"></line><line x1="1026" y1="152" x2="1064" y2="190"></line><line x1="1064" y1="152" x2="1102" y2="190"></line><line x1="1140" y1="152" x2="1102" y2="190"></line><line x1="1140" y1="152" x2="1178" y2="190"></line><line x1="1178" y1="152" x2="1216" y2="190"></line><line x1="1216" y1="152" x2="1254" y2="190"></line><line x1="1254" y1="152" x2="1292" y2="190"></line><line x1="1292" y1="152" x2="1330" y2="190"></line><line x1="1330" y1="152" x2="1368" y2="190"></line><line x1="1406" y1="152" x2="1368" y2="190"></line><line x1="1406" y1="152" x2="1444" y2="190"></line><line x1="0" y1="190" x2="38" y2="228"></line><line x1="38" y1="190" x2="76" y2="228"></line><line x1="76" y1="190" x2="114" y2="228"></line><line x1="114" y1="190" x2="152" y2="228"></line><line x1="152" y1="190" x2="190" y2="228"></line><line x1="190" y1="190" x2="228" y2="228"></line><line x1="228" y1="190" x2="266" y2="228"></line><line x1="266" y1="190" x2="304" y2="228"></line><line x1="304" y1="190" x2="342" y2="228"></line><line x1="342" y1="190" x2="380" y2="228"></line><line x1="380" y1="190" x2="418" y2="228"></line><line x1="418" y1="190" x2="456" y2="228"></line><line x1="494" y1="190" x2="456" y2="228"></line><line x1="494" y1="190" x2="532" y2="228"></line><line x1="532" y1="190" x2="570" y2="228"></line><line x1="570" y1="190" x2="608" y2="228"></line><line x1="608" y1="190" x2="646" y2="228"></line><line x1="646" y1="190" x2="684" y2="228"></line><line x1="684" y1="190" x2="722" y2="228"></line><line x1="722" y1="190" x2="760" y2="228"></line><line x1="798" y1="190" x2="760" y2="228"></line><line x1="798" y1="190" x2="836" y2="228"></line><line x1="836" y1="190" x2="874" y2="228"></line><line x1="874" y1="190" x2="912" y2="228"></line><line x1="912" y1="190" x2="950" y2="228"></line><line x1="950" y1="190" x2="988" y2="228"></line><line x1="988" y1="190" x2="1026" y2="228"></line><line x1="1064" y1="190" x2="1026" y2="228"></line><line x1="1102" y1="190" x2="1064" y2="228"></line><line x1="1102" y1="190" x2="1140" y2="228"></line><line x1="1140" y1="190" x2="1178" y2="228"></line><line x1="1216" y1="190" x2="1178" y2="228"></line><line x1="1216" y1="190" x2="1254" y2="228"></line><line x1="1254" y1="190" x2="1292" y2="228"></line><line x1="1292" y1="190" x2="1330" y2="228"></line><line x1="1330" y1="190" x2="1368" y2="228"></line><line x1="1368" y1="190" x2="1406" y2="228"></line><line x1="1444" y1="190" x2="1406" y2="228"></line><line x1="0" y1="228" x2="38" y2="266"></line><line x1="38" y1="228" x2="76" y2="266"></line><line x1="76" y1="228" x2="114" y2="266"></line><line x1="114" y1="228" x2="152" y2="266"></line><line x1="152" y1="228" x2="190" y2="266"></line><line x1="190" y1="228" x2="228" y2="266"></line><line x1="228" y1="228" x2="266" y2="266"></line><line x1="304" y1="228" x2="266" y2="266"></line><line x1="304" y1="228" x2="342" y2="266"></line><line x1="342" y1="228" x2="380" y2="266"></line><line x1="380" y1="228" x2="418" y2="266"></line><line x1="418" y1="228" x2="456" y2="266"></line><line x1="456" y1="228" x2="494" y2="266"></line><line x1="494" y1="228" x2="532" y2="266"></line><line x1="532" y1="228" x2="570" y2="266"></line><line x1="570" y1="228" x2="608" y2="266"></line><line x1="646" y1="228" x2="608" y2="266"></line><line x1="646" y1="228" x2="684" y2="266"></line><line x1="684" y1="228" x2="722" y2="266"></line><line x1="722" y1="228" x2="760" y2="266"></line><line x1="798" y1="228" x2="760" y2="266"></line><line x1="798" y1="228" x2="836" y2="266"></line><line x1="836" y1="228" x2="874" y2="266"></line><line x1="912" y1="228" x2="874" y2="266"></line><line x1="912" y1="228" x2="950" y2="266"></line><line x1="988" y1="228" x2="950" y2="266"></line><line x1="988" y1="228" x2="1026" y2="266"></line><line x1="1026" y1="228" x2="1064" y2="266"></line><line x1="1064" y1="228" x2="1102" y2="266"></line><line x1="1102" y1="228" x2="1140" y2="266"></line><line x1="1140" y1="228" x2="1178" y2="266"></line><line x1="1178" y1="228" x2="1216" y2="266"></line><line x1="1216" y1="228" x2="1254" y2="266"></line><line x1="1254" y1="228" x2="1292" y2="266"></line><line x1="1330" y1="228" x2="1292" y2="266"></line><line x1="1368" y1="228" x2="1330" y2="266"></line><line x1="1406" y1="228" x2="1368" y2="266"></line><line x1="1406" y1="228" x2="1444" y2="266"></line><line x1="0" y1="266" x2="38" y2="304"></line><line x1="76" y1="266" x2="38" y2="304"></line><line x1="76" y1="266" x2="114" y2="304"></line><line x1="114" y1="266" x2="152" y2="304"></line><line x1="152" y1="266" x2="190" y2="304"></line><line x1="190" y1="266" x2="228" y2="304"></line><line x1="228" y1="266" x2="266" y2="304"></line><line x1="266" y1="266" x2="304" y2="304"></line><line x1="304" y1="266" x2="342" y2="304"></line><line x1="342" y1="266" x2="380" y2="304"></line><line x1="380" y1="266" x2="418" y2="304"></line><line x1="456" y1="266" x2="418" y2="304"></line><line x1="456" y1="266" x2="494" y2="304"></line><line x1="494" y1="266" x2="532" y2="304"></line><line x1="532" y1="266" x2="570" y2="304"></line><line x1="570" y1="266" x2="608" y2="304"></line><line x1="646" y1="266" x2="608" y2="304"></line><line x1="684" y1="266" x2="646" y2="304"></line><line x1="684" y1="266" x2="722" y2="304"></line><line x1="722" y1="266" x2="760" y2="304"></line><line x1="760" y1="266" x2="798" y2="304"></line><line x1="798" y1="266" x2="836" y2="304"></line><line x1="874" y1="266" x2="836" y2="304"></line><line x1="874" y1="266" x2="912" y2="304"></line><line x1="950" y1="266" x2="912" y2="304"></line><line x1="950" y1="266" x2="988" y2="304"></line><line x1="988" y1="266" x2="1026" y2="304"></line><line x1="1026" y1="266" x2="1064" y2="304"></line><line x1="1064" y1="266" x2="1102" y2="304"></line><line x1="1102" y1="266" x2="1140" y2="304"></line><line x1="1140" y1="266" x2="1178" y2="304"></line><line x1="1178" y1="266" x2="1216" y2="304"></line><line x1="1216" y1="266" x2="1254" y2="304"></line><line x1="1254" y1="266" x2="1292" y2="304"></line><line x1="1292" y1="266" x2="1330" y2="304"></line><line x1="1330" y1="266" x2="1368" y2="304"></line><line x1="1368" y1="266" x2="1406" y2="304"></line><line x1="1406" y1="266" x2="1444" y2="304"></line><line x1="0" y1="304" x2="38" y2="342"></line><line x1="76" y1="304" x2="38" y2="342"></line><line x1="76" y1="304" x2="114" y2="342"></line><line x1="114" y1="304" x2="152" y2="342"></line><line x1="190" y1="304" x2="152" y2="342"></line><line x1="190" y1="304" x2="228" y2="342"></line><line x1="228" y1="304" x2="266" y2="342"></line><line x1="304" y1="304" x2="266" y2="342"></line><line x1="304" y1="304" x2="342" y2="342"></line><line x1="342" y1="304" x2="380" y2="342"></line><line x1="418" y1="304" x2="380" y2="342"></line><line x1="418" y1="304" x2="456" y2="342"></line><line x1="456" y1="304" x2="494" y2="342"></line><line x1="494" y1="304" x2="532" y2="342"></line><line x1="532" y1="304" x2="570" y2="342"></line><line x1="570" y1="304" x2="608" y2="342"></line><line x1="646" y1="304" x2="608" y2="342"></line><line x1="646" y1="304" x2="684" y2="342"></line><line x1="684" y1="304" x2="722" y2="342"></line><line x1="722" y1="304" x2="760" y2="342"></line><line x1="760" y1="304" x2="798" y2="342"></line><line x1="798" y1="304" x2="836" y2="342"></line><line x1="836" y1="304" x2="874" y2="342"></line><line x1="874" y1="304" x2="912" y2="342"></line><line x1="912" y1="304" x2="950" y2="342"></line><line x1="950" y1="304" x2="988" y2="342"></line><line x1="988" y1="304" x2="1026" y2="342"></line><line x1="1026" y1="304" x2="1064" y2="342"></line><line x1="1064" y1="304" x2="1102" y2="342"></line><line x1="1102" y1="304" x2="1140" y2="342"></line><line x1="1140" y1="304" x2="1178" y2="342"></line><line x1="1216" y1="304" x2="1178" y2="342"></line><line x1="1254" y1="304" x2="1216" y2="342"></line><line x1="1254" y1="304" x2="1292" y2="342"></line><line x1="1292" y1="304" x2="1330" y2="342"></line><line x1="1330" y1="304" x2="1368" y2="342"></line><line x1="1368" y1="304" x2="1406" y2="342"></line><line x1="1406" y1="304" x2="1444" y2="342"></line><line x1="0" y1="342" x2="38" y2="380"></line><line x1="76" y1="342" x2="38" y2="380"></line><line x1="76" y1="342" x2="114" y2="380"></line><line x1="114" y1="342" x2="152" y2="380"></line><line x1="190" y1="342" x2="152" y2="380"></line><line x1="190" y1="342" x2="228" y2="380"></line><line x1="228" y1="342" x2="266" y2="380"></line><line x1="266" y1="342" x2="304" y2="380"></line><line x1="342" y1="342" x2="304" y2="380"></line><line x1="342" y1="342" x2="380" y2="380"></line><line x1="380" y1="342" x2="418" y2="380"></line><line x1="418" y1="342" x2="456" y2="380"></line><line x1="456" y1="342" x2="494" y2="380"></line><line x1="494" y1="342" x2="532" y2="380"></line><line x1="532" y1="342" x2="570" y2="380"></line><line x1="570" y1="342" x2="608" y2="380"></line><line x1="646" y1="342" x2="608" y2="380"></line><line x1="646" y1="342" x2="684" y2="380"></line><line x1="684" y1="342" x2="722" y2="380"></line><line x1="722" y1="342" x2="760" y2="380"></line><line x1="760" y1="342" x2="798" y2="380"></line><line x1="798" y1="342" x2="836" y2="380"></line><line x1="836" y1="342" x2="874" y2="380"></line><line x1="912" y1="342" x2="874" y2="380"></line><line x1="912" y1="342" x2="950" y2="380"></line><line x1="950" y1="342" x2="988" y2="380"></line><line x1="988" y1="342" x2="1026" y2="380"></line><line x1="1026" y1="342" x2="1064" y2="380"></line><line x1="1064" y1="342" x2="1102" y2="380"></line><line x1="1102" y1="342" x2="1140" y2="380"></line><line x1="1140" y1="342" x2="1178" y2="380"></line><line x1="1178" y1="342" x2="1216" y2="380"></line><line x1="1216" y1="342" x2="1254" y2="380"></line><line x1="1254" y1="342" x2="1292" y2="380"></line><line x1="1292" y1="342" x2="1330" y2="380"></line><line x1="1330" y1="342" x2="1368" y2="380"></line><line x1="1368" y1="342" x2="1406" y2="380"></line><line x1="1406" y1="342" x2="1444" y2="380"></line><line x1="38" y1="380" x2="0" y2="418"></line><line x1="38" y1="380" x2="76" y2="418"></line><line x1="114" y1="380" x2="76" y2="418"></line><line x1="114" y1="380" x2="152" y2="418"></line><line x1="152" y1="380" x2="190" y2="418"></line><line x1="228" y1="380" x2="190" y2="418"></line><line x1="228" y1="380" x2="266" y2="418"></line><line x1="266" y1="380" x2="304" y2="418"></line><line x1="342" y1="380" x2="304" y2="418"></line><line x1="342" y1="380" x2="380" y2="418"></line><line x1="380" y1="380" x2="418" y2="418"></line><line x1="418" y1="380" x2="456" y2="418"></line><line x1="456" y1="380" x2="494" y2="418"></line><line x1="494" y1="380" x2="532" y2="418"></line><line x1="532" y1="380" x2="570" y2="418"></line><line x1="570" y1="380" x2="608" y2="418"></line><line x1="608" y1="380" x2="646" y2="418"></line><line x1="684" y1="380" x2="646" y2="418"></line><line x1="684" y1="380" x2="722" y2="418"></line><line x1="722" y1="380" x2="760" y2="418"></line><line x1="760" y1="380" x2="798" y2="418"></line><line x1="798" y1="380" x2="836" y2="418"></line><line x1="836" y1="380" x2="874" y2="418"></line><line x1="874" y1="380" x2="912" y2="418"></line><line x1="912" y1="380" x2="950" y2="418"></line><line x1="950" y1="380" x2="988" y2="418"></line><line x1="988" y1="380" x2="1026" y2="418"></line><line x1="1064" y1="380" x2="1026" y2="418"></line><line x1="1102" y1="380" x2="1064" y2="418"></line><line x1="1140" y1="380" x2="1102" y2="418"></line><line x1="1140" y1="380" x2="1178" y2="418"></line><line x1="1178" y1="380" x2="1216" y2="418"></line><line x1="1254" y1="380" x2="1216" y2="418"></line><line x1="1254" y1="380" x2="1292" y2="418"></line><line x1="1292" y1="380" x2="1330" y2="418"></line><line x1="1330" y1="380" x2="1368" y2="418"></line><line x1="1406" y1="380" x2="1368" y2="418"></line><line x1="1444" y1="380" x2="1406" y2="418"></line><line x1="0" y1="418" x2="38" y2="456"></line><line x1="38" y1="418" x2="76" y2="456"></line><line x1="76" y1="418" x2="114" y2="456"></line><line x1="114" y1="418" x2="152" y2="456"></line><line x1="152" y1="418" x2="190" y2="456"></line><line x1="190" y1="418" x2="228" y2="456"></line><line x1="228" y1="418" x2="266" y2="456"></line><line x1="266" y1="418" x2="304" y2="456"></line><line x1="342" y1="418" x2="304" y2="456"></line><line x1="342" y1="418" x2="380" y2="456"></line><line x1="380" y1="418" x2="418" y2="456"></line><line x1="418" y1="418" x2="456" y2="456"></line><line x1="456" y1="418" x2="494" y2="456"></line><line x1="494" y1="418" x2="532" y2="456"></line><line x1="532" y1="418" x2="570" y2="456"></line><line x1="608" y1="418" x2="570" y2="456"></line><line x1="646" y1="418" x2="608" y2="456"></line><line x1="646" y1="418" x2="684" y2="456"></line><line x1="684" y1="418" x2="722" y2="456"></line><line x1="760" y1="418" x2="722" y2="456"></line><line x1="760" y1="418" x2="798" y2="456"></line><line x1="798" y1="418" x2="836" y2="456"></line><line x1="836" y1="418" x2="874" y2="456"></line><line x1="874" y1="418" x2="912" y2="456"></line><line x1="912" y1="418" x2="950" y2="456"></line><line x1="950" y1="418" x2="988" y2="456"></line><line x1="1026" y1="418" x2="988" y2="456"></line><line x1="1026" y1="418" x2="1064" y2="456"></line><line x1="1064" y1="418" x2="1102" y2="456"></line><line x1="1102" y1="418" x2="1140" y2="456"></line><line x1="1178" y1="418" x2="1140" y2="456"></line><line x1="1178" y1="418" x2="1216" y2="456"></line><line x1="1216" y1="418" x2="1254" y2="456"></line><line x1="1254" y1="418" x2="1292" y2="456"></line><line x1="1292" y1="418" x2="1330" y2="456"></line><line x1="1330" y1="418" x2="1368" y2="456"></line><line x1="1368" y1="418" x2="1406" y2="456"></line><line x1="1406" y1="418" x2="1444" y2="456"></line><line x1="0" y1="456" x2="38" y2="494"></line><line x1="38" y1="456" x2="76" y2="494"></line><line x1="114" y1="456" x2="76" y2="494"></line><line x1="152" y1="456" x2="114" y2="494"></line><line x1="152" y1="456" x2="190" y2="494"></line><line x1="190" y1="456" x2="228" y2="494"></line><line x1="266" y1="456" x2="228" y2="494"></line><line x1="266" y1="456" x2="304" y2="494"></line><line x1="342" y1="456" x2="304" y2="494"></line><line x1="342" y1="456" x2="380" y2="494"></line><line x1="418" y1="456" x2="380" y2="494"></line><line x1="418" y1="456" x2="456" y2="494"></line><line x1="456" y1="456" x2="494" y2="494"></line><line x1="494" y1="456" x2="532" y2="494"></line><line x1="532" y1="456" x2="570" y2="494"></line><line x1="570" y1="456" x2="608" y2="494"></line><line x1="608" y1="456" x2="646" y2="494"></line><line x1="646" y1="456" x2="684" y2="494"></line><line x1="684" y1="456" x2="722" y2="494"></line><line x1="722" y1="456" x2="760" y2="494"></line><line x1="760" y1="456" x2="798" y2="494"></line><line x1="836" y1="456" x2="798" y2="494"></line><line x1="836" y1="456" x2="874" y2="494"></line><line x1="874" y1="456" x2="912" y2="494"></line><line x1="950" y1="456" x2="912" y2="494"></line><line x1="950" y1="456" x2="988" y2="494"></line><line x1="988" y1="456" x2="1026" y2="494"></line><line x1="1026" y1="456" x2="1064" y2="494"></line><line x1="1064" y1="456" x2="1102" y2="494"></line><line x1="1102" y1="456" x2="1140" y2="494"></line><line x1="1140" y1="456" x2="1178" y2="494"></line><line x1="1178" y1="456" x2="1216" y2="494"></line><line x1="1216" y1="456" x2="1254" y2="494"></line><line x1="1254" y1="456" x2="1292" y2="494"></line><line x1="1330" y1="456" x2="1292" y2="494"></line><line x1="1330" y1="456" x2="1368" y2="494"></line><line x1="1368" y1="456" x2="1406" y2="494"></line><line x1="1406" y1="456" x2="1444" y2="494"></line><line x1="0" y1="494" x2="38" y2="532"></line><line x1="38" y1="494" x2="76" y2="532"></line><line x1="76" y1="494" x2="114" y2="532"></line><line x1="114" y1="494" x2="152" y2="532"></line><line x1="152" y1="494" x2="190" y2="532"></line><line x1="228" y1="494" x2="190" y2="532"></line><line x1="228" y1="494" x2="266" y2="532"></line><line x1="266" y1="494" x2="304" y2="532"></line><line x1="342" y1="494" x2="304" y2="532"></line><line x1="380" y1="494" x2="342" y2="532"></line><line x1="380" y1="494" x2="418" y2="532"></line><line x1="418" y1="494" x2="456" y2="532"></line><line x1="456" y1="494" x2="494" y2="532"></line><line x1="494" y1="494" x2="532" y2="532"></line><line x1="532" y1="494" x2="570" y2="532"></line><line x1="570" y1="494" x2="608" y2="532"></line><line x1="608" y1="494" x2="646" y2="532"></line><line x1="684" y1="494" x2="646" y2="532"></line><line x1="722" y1="494" x2="684" y2="532"></line><line x1="722" y1="494" x2="760" y2="532"></line><line x1="760" y1="494" x2="798" y2="532"></line><line x1="798" y1="494" x2="836" y2="532"></line><line x1="836" y1="494" x2="874" y2="532"></line><line x1="874" y1="494" x2="912" y2="532"></line><line x1="912" y1="494" x2="950" y2="532"></line><line x1="988" y1="494" x2="950" y2="532"></line><line x1="1026" y1="494" x2="988" y2="532"></line><line x1="1064" y1="494" x2="1026" y2="532"></line><line x1="1102" y1="494" x2="1064" y2="532"></line><line x1="1102" y1="494" x2="1140" y2="532"></line><line x1="1140" y1="494" x2="1178" y2="532"></line><line x1="1178" y1="494" x2="1216" y2="532"></line><line x1="1216" y1="494" x2="1254" y2="532"></line><line x1="1254" y1="494" x2="1292" y2="532"></line><line x1="1292" y1="494" x2="1330" y2="532"></line><line x1="1330" y1="494" x2="1368" y2="532"></line><line x1="1368" y1="494" x2="1406" y2="532"></line><line x1="1406" y1="494" x2="1444" y2="532"></line><line x1="0" y1="532" x2="38" y2="570"></line><line x1="38" y1="532" x2="76" y2="570"></line><line x1="76" y1="532" x2="114" y2="570"></line><line x1="114" y1="532" x2="152" y2="570"></line><line x1="152" y1="532" x2="190" y2="570"></line><line x1="190" y1="532" x2="228" y2="570"></line><line x1="228" y1="532" x2="266" y2="570"></line><line x1="266" y1="532" x2="304" y2="570"></line><line x1="342" y1="532" x2="304" y2="570"></line><line x1="342" y1="532" x2="380" y2="570"></line><line x1="418" y1="532" x2="380" y2="570"></line><line x1="456" y1="532" x2="418" y2="570"></line><line x1="456" y1="532" x2="494" y2="570"></line><line x1="494" y1="532" x2="532" y2="570"></line><line x1="570" y1="532" x2="532" y2="570"></line><line x1="608" y1="532" x2="570" y2="570"></line><line x1="608" y1="532" x2="646" y2="570"></line><line x1="646" y1="532" x2="684" y2="570"></line><line x1="722" y1="532" x2="684" y2="570"></line><line x1="722" y1="532" x2="760" y2="570"></line><line x1="798" y1="532" x2="760" y2="570"></line><line x1="798" y1="532" x2="836" y2="570"></line><line x1="836" y1="532" x2="874" y2="570"></line><line x1="874" y1="532" x2="912" y2="570"></line><line x1="912" y1="532" x2="950" y2="570"></line><line x1="950" y1="532" x2="988" y2="570"></line><line x1="988" y1="532" x2="1026" y2="570"></line><line x1="1026" y1="532" x2="1064" y2="570"></line><line x1="1064" y1="532" x2="1102" y2="570"></line><line x1="1140" y1="532" x2="1102" y2="570"></line><line x1="1178" y1="532" x2="1140" y2="570"></line><line x1="1178" y1="532" x2="1216" y2="570"></line><line x1="1216" y1="532" x2="1254" y2="570"></line><line x1="1254" y1="532" x2="1292" y2="570"></line><line x1="1292" y1="532" x2="1330" y2="570"></line><line x1="1330" y1="532" x2="1368" y2="570"></line><line x1="1368" y1="532" x2="1406" y2="570"></line><line x1="1406" y1="532" x2="1444" y2="570"></line><line x1="0" y1="570" x2="38" y2="608"></line><line x1="38" y1="570" x2="76" y2="608"></line><line x1="114" y1="570" x2="76" y2="608"></line><line x1="114" y1="570" x2="152" y2="608"></line><line x1="152" y1="570" x2="190" y2="608"></line><line x1="190" y1="570" x2="228" y2="608"></line><line x1="228" y1="570" x2="266" y2="608"></line><line x1="266" y1="570" x2="304" y2="608"></line><line x1="304" y1="570" x2="342" y2="608"></line><line x1="342" y1="570" x2="380" y2="608"></line><line x1="380" y1="570" x2="418" y2="608"></line><line x1="418" y1="570" x2="456" y2="608"></line><line x1="456" y1="570" x2="494" y2="608"></line><line x1="494" y1="570" x2="532" y2="608"></line><line x1="532" y1="570" x2="570" y2="608"></line><line x1="570" y1="570" x2="608" y2="608"></line><line x1="646" y1="570" x2="608" y2="608"></line><line x1="646" y1="570" x2="684" y2="608"></line><line x1="684" y1="570" x2="722" y2="608"></line><line x1="722" y1="570" x2="760" y2="608"></line><line x1="760" y1="570" x2="798" y2="608"></line><line x1="798" y1="570" x2="836" y2="608"></line><line x1="836" y1="570" x2="874" y2="608"></line><line x1="874" y1="570" x2="912" y2="608"></line><line x1="950" y1="570" x2="912" y2="608"></line><line x1="950" y1="570" x2="988" y2="608"></line><line x1="988" y1="570" x2="1026" y2="608"></line><line x1="1026" y1="570" x2="1064" y2="608"></line><line x1="1064" y1="570" x2="1102" y2="608"></line><line x1="1102" y1="570" x2="1140" y2="608"></line><line x1="1140" y1="570" x2="1178" y2="608"></line><line x1="1178" y1="570" x2="1216" y2="608"></line><line x1="1216" y1="570" x2="1254" y2="608"></line><line x1="1254" y1="570" x2="1292" y2="608"></line><line x1="1292" y1="570" x2="1330" y2="608"></line><line x1="1330" y1="570" x2="1368" y2="608"></line><line x1="1368" y1="570" x2="1406" y2="608"></line><line x1="1444" y1="570" x2="1406" y2="608"></line><line x1="0" y1="608" x2="38" y2="646"></line><line x1="38" y1="608" x2="76" y2="646"></line><line x1="114" y1="608" x2="76" y2="646"></line><line x1="152" y1="608" x2="114" y2="646"></line><line x1="152" y1="608" x2="190" y2="646"></line><line x1="228" y1="608" x2="190" y2="646"></line><line x1="228" y1="608" x2="266" y2="646"></line><line x1="266" y1="608" x2="304" y2="646"></line><line x1="304" y1="608" x2="342" y2="646"></line><line x1="342" y1="608" x2="380" y2="646"></line><line x1="380" y1="608" x2="418" y2="646"></line><line x1="418" y1="608" x2="456" y2="646"></line><line x1="494" y1="608" x2="456" y2="646"></line><line x1="494" y1="608" x2="532" y2="646"></line><line x1="570" y1="608" x2="532" y2="646"></line><line x1="570" y1="608" x2="608" y2="646"></line><line x1="608" y1="608" x2="646" y2="646"></line><line x1="646" y1="608" x2="684" y2="646"></line><line x1="684" y1="608" x2="722" y2="646"></line><line x1="760" y1="608" x2="722" y2="646"></line><line x1="760" y1="608" x2="798" y2="646"></line><line x1="798" y1="608" x2="836" y2="646"></line><line x1="836" y1="608" x2="874" y2="646"></line><line x1="874" y1="608" x2="912" y2="646"></line><line x1="912" y1="608" x2="950" y2="646"></line><line x1="988" y1="608" x2="950" y2="646"></line><line x1="1026" y1="608" x2="988" y2="646"></line><line x1="1026" y1="608" x2="1064" y2="646"></line><line x1="1064" y1="608" x2="1102" y2="646"></line><line x1="1140" y1="608" x2="1102" y2="646"></line><line x1="1140" y1="608" x2="1178" y2="646"></line><line x1="1178" y1="608" x2="1216" y2="646"></line><line x1="1216" y1="608" x2="1254" y2="646"></line><line x1="1254" y1="608" x2="1292" y2="646"></line><line x1="1292" y1="608" x2="1330" y2="646"></line><line x1="1330" y1="608" x2="1368" y2="646"></line><line x1="1368" y1="608" x2="1406" y2="646"></line><line x1="1406" y1="608" x2="1444" y2="646"></line><line x1="0" y1="646" x2="38" y2="684"></line><line x1="38" y1="646" x2="76" y2="684"></line><line x1="76" y1="646" x2="114" y2="684"></line><line x1="114" y1="646" x2="152" y2="684"></line><line x1="152" y1="646" x2="190" y2="684"></line><line x1="190" y1="646" x2="228" y2="684"></line><line x1="266" y1="646" x2="228" y2="684"></line><line x1="266" y1="646" x2="304" y2="684"></line><line x1="304" y1="646" x2="342" y2="684"></line><line x1="342" y1="646" x2="380" y2="684"></line><line x1="380" y1="646" x2="418" y2="684"></line><line x1="418" y1="646" x2="456" y2="684"></line><line x1="456" y1="646" x2="494" y2="684"></line><line x1="494" y1="646" x2="532" y2="684"></line><line x1="532" y1="646" x2="570" y2="684"></line><line x1="570" y1="646" x2="608" y2="684"></line><line x1="608" y1="646" x2="646" y2="684"></line><line x1="646" y1="646" x2="684" y2="684"></line><line x1="684" y1="646" x2="722" y2="684"></line><line x1="722" y1="646" x2="760" y2="684"></line><line x1="760" y1="646" x2="798" y2="684"></line><line x1="798" y1="646" x2="836" y2="684"></line><line x1="836" y1="646" x2="874" y2="684"></line><line x1="874" y1="646" x2="912" y2="684"></line><line x1="912" y1="646" x2="950" y2="684"></line><line x1="988" y1="646" x2="950" y2="684"></line><line x1="988" y1="646" x2="1026" y2="684"></line><line x1="1026" y1="646" x2="1064" y2="684"></line><line x1="1064" y1="646" x2="1102" y2="684"></line><line x1="1140" y1="646" x2="1102" y2="684"></line><line x1="1140" y1="646" x2="1178" y2="684"></line><line x1="1178" y1="646" x2="1216" y2="684"></line><line x1="1216" y1="646" x2="1254" y2="684"></line><line x1="1254" y1="646" x2="1292" y2="684"></line><line x1="1292" y1="646" x2="1330" y2="684"></line><line x1="1330" y1="646" x2="1368" y2="684"></line><line x1="1368" y1="646" x2="1406" y2="684"></line><line x1="1406" y1="646" x2="1444" y2="684"></line><line x1="0" y1="684" x2="38" y2="722"></line><line x1="38" y1="684" x2="76" y2="722"></line><line x1="76" y1="684" x2="114" y2="722"></line><line x1="114" y1="684" x2="152" y2="722"></line><line x1="152" y1="684" x2="190" y2="722"></line><line x1="190" y1="684" x2="228" y2="722"></line><line x1="228" y1="684" x2="266" y2="722"></line><line x1="266" y1="684" x2="304" y2="722"></line><line x1="304" y1="684" x2="342" y2="722"></line><line x1="342" y1="684" x2="380" y2="722"></line><line x1="418" y1="684" x2="380" y2="722"></line><line x1="418" y1="684" x2="456" y2="722"></line><line x1="456" y1="684" x2="494" y2="722"></line><line x1="494" y1="684" x2="532" y2="722"></line><line x1="532" y1="684" x2="570" y2="722"></line><line x1="570" y1="684" x2="608" y2="722"></line><line x1="608" y1="684" x2="646" y2="722"></line><line x1="646" y1="684" x2="684" y2="722"></line><line x1="684" y1="684" x2="722" y2="722"></line><line x1="722" y1="684" x2="760" y2="722"></line><line x1="760" y1="684" x2="798" y2="722"></line><line x1="798" y1="684" x2="836" y2="722"></line><line x1="836" y1="684" x2="874" y2="722"></line><line x1="874" y1="684" x2="912" y2="722"></line><line x1="912" y1="684" x2="950" y2="722"></line><line x1="988" y1="684" x2="950" y2="722"></line><line x1="988" y1="684" x2="1026" y2="722"></line><line x1="1026" y1="684" x2="1064" y2="722"></line><line x1="1064" y1="684" x2="1102" y2="722"></line><line x1="1102" y1="684" x2="1140" y2="722"></line><line x1="1140" y1="684" x2="1178" y2="722"></line><line x1="1216" y1="684" x2="1178" y2="722"></line><line x1="1254" y1="684" x2="1216" y2="722"></line><line x1="1254" y1="684" x2="1292" y2="722"></line><line x1="1292" y1="684" x2="1330" y2="722"></line><line x1="1330" y1="684" x2="1368" y2="722"></line><line x1="1406" y1="684" x2="1368" y2="722"></line><line x1="1406" y1="684" x2="1444" y2="722"></line><line x1="0" y1="722" x2="38" y2="760"></line><line x1="38" y1="722" x2="76" y2="760"></line><line x1="76" y1="722" x2="114" y2="760"></line><line x1="114" y1="722" x2="152" y2="760"></line><line x1="190" y1="722" x2="152" y2="760"></line><line x1="190" y1="722" x2="228" y2="760"></line><line x1="228" y1="722" x2="266" y2="760"></line><line x1="266" y1="722" x2="304" y2="760"></line><line x1="304" y1="722" x2="342" y2="760"></line><line x1="342" y1="722" x2="380" y2="760"></line><line x1="380" y1="722" x2="418" y2="760"></line><line x1="418" y1="722" x2="456" y2="760"></line><line x1="456" y1="722" x2="494" y2="760"></line><line x1="494" y1="722" x2="532" y2="760"></line><line x1="532" y1="722" x2="570" y2="760"></line><line x1="570" y1="722" x2="608" y2="760"></line><line x1="646" y1="722" x2="608" y2="760"></line><line x1="646" y1="722" x2="684" y2="760"></line><line x1="684" y1="722" x2="722" y2="760"></line><line x1="722" y1="722" x2="760" y2="760"></line><line x1="760" y1="722" x2="798" y2="760"></line><line x1="798" y1="722" x2="836" y2="760"></line><line x1="836" y1="722" x2="874" y2="760"></line><line x1="874" y1="722" x2="912" y2="760"></line><line x1="950" y1="722" x2="912" y2="760"></line><line x1="950" y1="722" x2="988" y2="760"></line><line x1="988" y1="722" x2="1026" y2="760"></line><line x1="1064" y1="722" x2="1026" y2="760"></line><line x1="1064" y1="722" x2="1102" y2="760"></line><line x1="1102" y1="722" x2="1140" y2="760"></line><line x1="1140" y1="722" x2="1178" y2="760"></line><line x1="1178" y1="722" x2="1216" y2="760"></line><line x1="1216" y1="722" x2="1254" y2="760"></line><line x1="1254" y1="722" x2="1292" y2="760"></line><line x1="1330" y1="722" x2="1292" y2="760"></line><line x1="1330" y1="722" x2="1368" y2="760"></line><line x1="1368" y1="722" x2="1406" y2="760"></line><line x1="1406" y1="722" x2="1444" y2="760"></line><line x1="0" y1="760" x2="38" y2="798"></line><line x1="38" y1="760" x2="76" y2="798"></line><line x1="76" y1="760" x2="114" y2="798"></line><line x1="114" y1="760" x2="152" y2="798"></line><line x1="152" y1="760" x2="190" y2="798"></line><line x1="190" y1="760" x2="228" y2="798"></line><line x1="228" y1="760" x2="266" y2="798"></line><line x1="304" y1="760" x2="266" y2="798"></line><line x1="304" y1="760" x2="342" y2="798"></line><line x1="342" y1="760" x2="380" y2="798"></line><line x1="380" y1="760" x2="418" y2="798"></line><line x1="418" y1="760" x2="456" y2="798"></line><line x1="494" y1="760" x2="456" y2="798"></line><line x1="494" y1="760" x2="532" y2="798"></line><line x1="532" y1="760" x2="570" y2="798"></line><line x1="570" y1="760" x2="608" y2="798"></line><line x1="608" y1="760" x2="646" y2="798"></line><line x1="646" y1="760" x2="684" y2="798"></line><line x1="684" y1="760" x2="722" y2="798"></line><line x1="722" y1="760" x2="760" y2="798"></line><line x1="760" y1="760" x2="798" y2="798"></line><line x1="798" y1="760" x2="836" y2="798"></line><line x1="836" y1="760" x2="874" y2="798"></line><line x1="874" y1="760" x2="912" y2="798"></line><line x1="912" y1="760" x2="950" y2="798"></line><line x1="950" y1="760" x2="988" y2="798"></line><line x1="988" y1="760" x2="1026" y2="798"></line><line x1="1026" y1="760" x2="1064" y2="798"></line><line x1="1064" y1="760" x2="1102" y2="798"></line><line x1="1102" y1="760" x2="1140" y2="798"></line><line x1="1178" y1="760" x2="1140" y2="798"></line><line x1="1216" y1="760" x2="1178" y2="798"></line><line x1="1216" y1="760" x2="1254" y2="798"></line><line x1="1254" y1="760" x2="1292" y2="798"></line><line x1="1330" y1="760" x2="1292" y2="798"></line><line x1="1330" y1="760" x2="1368" y2="798"></line><line x1="1368" y1="760" x2="1406" y2="798"></line><line x1="1444" y1="760" x2="1406" y2="798"></line><line x1="0" y1="798" x2="38" y2="836"></line><line x1="38" y1="798" x2="76" y2="836"></line><line x1="76" y1="798" x2="114" y2="836"></line><line x1="152" y1="798" x2="114" y2="836"></line><line x1="152" y1="798" x2="190" y2="836"></line><line x1="190" y1="798" x2="228" y2="836"></line><line x1="228" y1="798" x2="266" y2="836"></line><line x1="304" y1="798" x2="266" y2="836"></line><line x1="304" y1="798" x2="342" y2="836"></line><line x1="342" y1="798" x2="380" y2="836"></line><line x1="380" y1="798" x2="418" y2="836"></line><line x1="418" y1="798" x2="456" y2="836"></line><line x1="456" y1="798" x2="494" y2="836"></line><line x1="494" y1="798" x2="532" y2="836"></line><line x1="570" y1="798" x2="532" y2="836"></line><line x1="570" y1="798" x2="608" y2="836"></line><line x1="608" y1="798" x2="646" y2="836"></line><line x1="646" y1="798" x2="684" y2="836"></line><line x1="722" y1="798" x2="684" y2="836"></line><line x1="722" y1="798" x2="760" y2="836"></line><line x1="760" y1="798" x2="798" y2="836"></line><line x1="836" y1="798" x2="798" y2="836"></line><line x1="836" y1="798" x2="874" y2="836"></line><line x1="874" y1="798" x2="912" y2="836"></line><line x1="912" y1="798" x2="950" y2="836"></line><line x1="950" y1="798" x2="988" y2="836"></line><line x1="988" y1="798" x2="1026" y2="836"></line><line x1="1026" y1="798" x2="1064" y2="836"></line><line x1="1064" y1="798" x2="1102" y2="836"></line><line x1="1102" y1="798" x2="1140" y2="836"></line><line x1="1140" y1="798" x2="1178" y2="836"></line><line x1="1178" y1="798" x2="1216" y2="836"></line><line x1="1216" y1="798" x2="1254" y2="836"></line><line x1="1254" y1="798" x2="1292" y2="836"></line><line x1="1292" y1="798" x2="1330" y2="836"></line><line x1="1330" y1="798" x2="1368" y2="836"></line><line x1="1368" y1="798" x2="1406" y2="836"></line><line x1="1406" y1="798" x2="1444" y2="836"></line></g></svg>