<svg id="wave" style="transform:rotate(180deg); transition: 0.3s" viewBox="0 0 1440 270" version="1.1" xmlns="http://www.w3.org/2000/svg"><defs><linearGradient id="sw-gradient-0" x1="0" x2="0" y1="1" y2="0"><stop stop-color="rgba(243, 106, 62, 1)" offset="0%"></stop><stop stop-color="rgba(255, 179, 11, 1)" offset="100%"></stop></linearGradient></defs><path style="transform:translate(0, 0px); opacity:1" fill="url(#sw-gradient-0)" d="M0,27L21.8,54C43.6,81,87,135,131,144C174.5,153,218,117,262,117C305.5,117,349,153,393,175.5C436.4,198,480,207,524,189C567.3,171,611,126,655,99C698.2,72,742,63,785,76.5C829.1,90,873,126,916,126C960,126,1004,90,1047,85.5C1090.9,81,1135,108,1178,99C1221.8,90,1265,45,1309,31.5C1352.7,18,1396,36,1440,49.5C1483.6,63,1527,72,1571,85.5C1614.5,99,1658,117,1702,112.5C1745.5,108,1789,81,1833,99C1876.4,117,1920,180,1964,175.5C2007.3,171,2051,99,2095,76.5C2138.2,54,2182,81,2225,76.5C2269.1,72,2313,36,2356,49.5C2400,63,2444,126,2487,130.5C2530.9,135,2575,81,2618,81C2661.8,81,2705,135,2749,162C2792.7,189,2836,189,2880,193.5C2923.6,198,2967,207,3011,216C3054.5,225,3098,234,3120,238.5L3141.8,243L3141.8,270L3120,270C3098.2,270,3055,270,3011,270C2967.3,270,2924,270,2880,270C2836.4,270,2793,270,2749,270C2705.5,270,2662,270,2618,270C2574.5,270,2531,270,2487,270C2443.6,270,2400,270,2356,270C2312.7,270,2269,270,2225,270C2181.8,270,2138,270,2095,270C2050.9,270,2007,270,1964,270C1920,270,1876,270,1833,270C1789.1,270,1745,270,1702,270C1658.2,270,1615,270,1571,270C1527.3,270,1484,270,1440,270C1396.4,270,1353,270,1309,270C1265.5,270,1222,270,1178,270C1134.5,270,1091,270,1047,270C1003.6,270,960,270,916,270C872.7,270,829,270,785,270C741.8,270,698,270,655,270C610.9,270,567,270,524,270C480,270,436,270,393,270C349.1,270,305,270,262,270C218.2,270,175,270,131,270C87.3,270,44,270,22,270L0,270Z"></path></svg>