<svg id="wave" style="
position: absolute; top: 0px; left: 0px; z-index: -12; opacity: 0.4;
transform:rotate(180deg);
 transition: 0.3s" viewBox="0 0 1440 490" version="1.1" xmlns="http://www.w3.org/2000/svg"><defs><linearGradient id="sw-gradient-0" x1="0" x2="0" y1="1" y2="0"><stop stop-color="rgba(243, 106, 62, 0.36)" offset="0%"></stop><stop stop-color="rgba(255, 179, 11, 0.32)" offset="100%"></stop></linearGradient></defs><path style="transform:translate(0, 0px); opacity:1" fill="url(#sw-gradient-0)" d="M0,245L20,261.3C40,278,80,310,120,269.5C160,229,200,114,240,89.8C280,65,320,131,360,196C400,261,440,327,480,302.2C520,278,560,163,600,98C640,33,680,16,720,49C760,82,800,163,840,204.2C880,245,920,245,960,212.3C1000,180,1040,114,1080,122.5C1120,131,1160,212,1200,253.2C1240,294,1280,294,1320,261.3C1360,229,1400,163,1440,122.5C1480,82,1520,65,1560,114.3C1600,163,1640,278,1680,294C1720,310,1760,229,1800,179.7C1840,131,1880,114,1920,147C1960,180,2000,261,2040,269.5C2080,278,2120,212,2160,220.5C2200,229,2240,310,2280,351.2C2320,392,2360,392,2400,392C2440,392,2480,392,2520,359.3C2560,327,2600,261,2640,220.5C2680,180,2720,163,2760,163.3C2800,163,2840,180,2860,187.8L2880,196L2880,490L2860,490C2840,490,2800,490,2760,490C2720,490,2680,490,2640,490C2600,490,2560,490,2520,490C2480,490,2440,490,2400,490C2360,490,2320,490,2280,490C2240,490,2200,490,2160,490C2120,490,2080,490,2040,490C2000,490,1960,490,1920,490C1880,490,1840,490,1800,490C1760,490,1720,490,1680,490C1640,490,1600,490,1560,490C1520,490,1480,490,1440,490C1400,490,1360,490,1320,490C1280,490,1240,490,1200,490C1160,490,1120,490,1080,490C1040,490,1000,490,960,490C920,490,880,490,840,490C800,490,760,490,720,490C680,490,640,490,600,490C560,490,520,490,480,490C440,490,400,490,360,490C320,490,280,490,240,490C200,490,160,490,120,490C80,490,40,490,20,490L0,490Z"></path></svg>